<svg width="25" height="25" viewBox="0 0 25 25" fill="none" xmlns="http://www.w3.org/2000/svg">
<path d="M17.2377 0H4.90443C3.10264 0 1.63613 1.19473 1.63613 2.66085V12.5H1.31685C0.58964 12.5 0 12.9796 0 13.5721V20.0746C0 20.6671 0.58964 21.1469 1.31685 21.1469H1.63613V22.3392C1.63613 23.8069 3.10271 25 4.90443 25H21.7327C23.5334 25 25 23.8068 25 22.3392V6.29739L17.2377 0ZM6.29 18.4181C6.668 18.4181 7.08707 18.3512 7.33406 18.2711L7.52265 19.067C7.29279 19.161 6.77487 19.2616 6.10135 19.2616C4.18626 19.2616 3.20003 18.2916 3.20003 17.0069C3.20003 15.4681 4.54802 14.6117 6.2244 14.6117C6.87378 14.6117 7.36667 14.7187 7.58844 14.8119L7.33406 15.6217C7.07905 15.5343 6.72576 15.4543 6.28204 15.4543C5.28727 15.4543 4.5149 15.9429 4.5149 16.9465C4.5149 17.8494 5.17237 18.4181 6.29 18.4181ZM21.7327 23.3704H4.90443C4.20677 23.3704 3.63859 22.9079 3.63859 22.3392V21.1469H19.326C20.0533 21.1469 20.643 20.6671 20.643 20.0746V13.5721C20.643 12.9796 20.0533 12.5 19.326 12.5H3.63859V2.66085C3.63859 2.09363 4.20677 1.63111 4.90443 1.63111L16.489 1.62131V5.10749C16.489 6.12571 17.5038 6.95275 18.7555 6.95275L22.9501 6.943L22.9973 22.3392C22.9973 22.9079 22.4302 23.3704 21.7327 23.3704ZM9.72803 17.3011C8.80746 17.0404 8.20731 16.6253 8.20731 15.9698C8.20731 15.1999 8.99617 14.6116 10.3031 14.6116C10.9274 14.6116 11.3882 14.7186 11.7164 14.8388L11.4373 15.6618C11.2156 15.5751 10.821 15.4476 10.2785 15.4476C9.73599 15.4476 9.47302 15.6487 9.47302 15.8825C9.47302 16.1701 9.78516 16.2976 10.5003 16.5182C11.4785 16.8124 11.9387 17.2276 11.9387 17.8634C11.9387 18.6192 11.2235 19.2616 9.70332 19.2616C9.07044 19.2616 8.44564 19.1276 8.1335 18.987L8.38838 18.1444C8.72524 18.285 9.24316 18.4248 9.77714 18.4248C10.3523 18.4248 10.6564 18.2311 10.6564 17.9368C10.6565 17.6558 10.3935 17.4948 9.72803 17.3011ZM14.1682 17.3011C13.2478 17.0404 12.6475 16.6253 12.6475 15.9698C12.6475 15.1999 13.4365 14.6116 14.7433 14.6116C15.3683 14.6116 15.8279 14.7186 16.1571 14.8388L15.8777 15.6618C15.6558 15.5751 15.2613 15.4476 14.7188 15.4476C14.1762 15.4476 13.9133 15.6487 13.9133 15.8825C13.9133 16.1701 14.2254 16.2976 14.9407 16.5182C15.9188 16.8124 16.3791 17.2276 16.3791 17.8634C16.3791 18.6192 15.664 19.2616 14.1437 19.2616C13.5108 19.2616 12.8859 19.1276 12.5738 18.987L12.8288 18.1444C13.1655 18.285 13.6834 18.4248 14.2174 18.4248C14.7926 18.4248 15.0968 18.2311 15.0968 17.9368C15.0967 17.6558 14.8337 17.4948 14.1682 17.3011Z" fill="#080808"/>
</svg>
