<svg width="29" height="28" viewBox="0 0 29 28" fill="none" xmlns="http://www.w3.org/2000/svg">
<path d="M25.5 0H3.5C1.8125 0 0.5 1.375 0.5 3V25C0.5 26.6875 1.8125 28 3.5 28H25.5C27.125 28 28.5 26.6875 28.5 25V3C28.5 1.375 27.125 0 25.5 0ZM15.6875 21.875C15.6875 24.5625 14.125 25.8125 11.75 25.8125C9.6875 25.8125 8.4375 24.75 7.8125 23.4375L10 22.125C10.375 22.875 10.75 23.5 11.6875 23.5C12.5 23.5 13.0625 23.125 13.0625 21.8125V12.875H15.6875V21.875ZM21.9375 25.8125C19.5 25.8125 17.9375 24.6875 17.125 23.125L19.3125 21.9375C19.875 22.8125 20.5625 23.5 21.875 23.5C22.9375 23.5 23.6875 22.9375 23.6875 22.1875C23.6875 21.3125 22.9375 21 21.75 20.4375L21.0625 20.1875C19.1875 19.375 17.9375 18.375 17.9375 16.1875C17.9375 14.25 19.4375 12.75 21.8125 12.75C23.4375 12.75 24.6875 13.3125 25.5 14.8125L23.5 16.125C23 15.375 22.5625 15 21.75 15C21 15 20.5 15.5 20.5 16.125C20.5 16.9375 21 17.25 22.125 17.75L22.8125 18.0625C25.0625 19 26.3125 20 26.3125 22.1875C26.3125 24.5625 24.4375 25.8125 21.9375 25.8125Z" fill="black"/>
</svg>
